# xmcd
#
# Track frame offsets:
#	150
#	20874
#	32981
#	57751
#	72072
#	92426
#	100721
#	119147
#	138029
#	149815
#	163756
#
# Disc length: 2632 seconds
#
# Revision: 0
# Processed by: cddbd v1.5.2PL0 Copyright (c) Steve Scherf et al.
# Submitted via: dBpowerAMP V4.0
#
DISCID=9d0a460b
DTITLE=Willie Nelson - The Troublemaker
DYEAR=1976
DGENRE=Country
TTITLE0=Uncloudy Day
TTITLE1=When the Roll is Called Up Yonder
TTITLE2=Whispering Hope
TTITLE3=There is a Fountain
TTITLE4=Will the Circle Be Unbroken
TTITLE5=The Troublemaker
TTITLE6=In the Garden
TTITLE7=Where the Soul Never Dies
TTITLE8=Sweet Bye and Bye
TTITLE9=Shall We Gather
TTITLE10=Precious Memories
EXTD=
EXTT0=
EXTT1=
EXTT2=
EXTT3=
EXTT4=
EXTT5=
EXTT6=
EXTT7=
EXTT8=
EXTT9=
EXTT10=
PLAYORDER=
